HIERARCHY
ROOT joint_Root
{
	OFFSET 0.0 0.0 0.0
	CHANNELS 6 Xposition Yposition Zposition Zrotation Xrotation Yrotation 
	JOINT Hips
	{
		OFFSET 4.5925 91.4895 -427.239
		CHANNELS 6 Xposition Yposition Zposition Zrotation Xrotation Yrotation 
		JOINT Spine
		{
			OFFSET 15.7357 0.0 0.0
			CHANNELS 6 Xposition Yposition Zposition Zrotation Xrotation Yrotation 
			JOINT Chest
			{
				OFFSET 8.98455 -0.406207 0.0
				CHANNELS 6 Xposition Yposition Zposition Zrotation Xrotation Yrotation 
				JOINT Neck
				{
					OFFSET 16.3773 0.0 0.0
					CHANNELS 6 Xposition Yposition Zposition Zrotation Xrotation Yrotation 
					JOINT Head
					{
						OFFSET 6.45672 0.0 0.0
						CHANNELS 6 Xposition Yposition Zposition Zrotation Xrotation Yrotation 
						End Site
						{
							OFFSET 0.0 0.0 0.0
						}
					}
				}
				JOINT Shoulder_L
				{
					OFFSET 12.9942 -0.242716 4.98039
					CHANNELS 6 Xposition Yposition Zposition Zrotation Xrotation Yrotation 
					JOINT UpperArm_L
					{
						OFFSET 5.34809 0.0 0.0
						CHANNELS 6 Xposition Yposition Zposition Zrotation Xrotation Yrotation 
						JOINT LowerArm_L
						{
							OFFSET 24.3286 1.87007e-05 0.0
							CHANNELS 6 Xposition Yposition Zposition Zrotation Xrotation Yrotation 
							JOINT Hand_L
							{
								OFFSET 22.2916 0.0 0.0
								CHANNELS 6 Xposition Yposition Zposition Zrotation Xrotation Yrotation 
								End Site
								{
									OFFSET 0.0 0.0 0.0
								}
							}
						}
					}
				}
				JOINT Shoulder_R
				{
					OFFSET 12.9945 -0.242716 -4.98039
					CHANNELS 6 Xposition Yposition Zposition Zrotation Xrotation Yrotation 
					JOINT UpperArm_R
					{
						OFFSET -5.34813 0.0 0.0
						CHANNELS 6 Xposition Yposition Zposition Zrotation Xrotation Yrotation 
						JOINT LowerArm_R
						{
							OFFSET -24.3289 0.000322201 0.0
							CHANNELS 6 Xposition Yposition Zposition Zrotation Xrotation Yrotation 
							JOINT Hand_R
							{
								OFFSET -22.2915 -0.000108084 0.0
								CHANNELS 6 Xposition Yposition Zposition Zrotation Xrotation Yrotation 
								End Site
								{
									OFFSET 0.0 0.0 0.0
								}
							}
						}
					}
				}
			}
		}
		JOINT UpperLeg_L
		{
			OFFSET -2.19248 -6.46944 0.0
			CHANNELS 6 Xposition Yposition Zposition Zrotation Xrotation Yrotation 
			JOINT LowerLeg_L
			{
				OFFSET 39.0811 0.0 -1.23785e-05
				CHANNELS 6 Xposition Yposition Zposition Zrotation Xrotation Yrotation 
				JOINT Foot_L
				{
					OFFSET 40.9854 0.0 -1.26872e-05
					CHANNELS 6 Xposition Yposition Zposition Zrotation Xrotation Yrotation 
					JOINT Toes_L
					{
						OFFSET 11.7543 0.0 0.0
						CHANNELS 6 Xposition Yposition Zposition Zrotation Xrotation Yrotation 
						End Site
						{
							OFFSET 0.0 0.0 0.0
						}
					}
				}
			}
		}
		JOINT UpperLeg_R
		{
			OFFSET -2.19251 6.46944 0.0
			CHANNELS 6 Xposition Yposition Zposition Zrotation Xrotation Yrotation 
			JOINT LowerLeg_R
			{
				OFFSET -39.0811 -0.00228153 -0.0401928
				CHANNELS 6 Xposition Yposition Zposition Zrotation Xrotation Yrotation 
				JOINT Foot_R
				{
					OFFSET -40.9854 0.0 0.0
					CHANNELS 6 Xposition Yposition Zposition Zrotation Xrotation Yrotation 
					JOINT Toes_R
					{
						OFFSET -11.7543 0.0 0.0
						CHANNELS 6 Xposition Yposition Zposition Zrotation Xrotation Yrotation 
						End Site
						{
							OFFSET 0.0 0.0 0.0
						}
					}
				}
			}
		}
	}
}
MOTION
Frames:	9
Frame Time:	0.0333333
0.000000 0.000000 0.000000 0.000000 0.000000 -0.000000 -6.402760 89.586100 -0.879858 86.403500 -13.889900 13.835700 15.735700 0.000005 -0.000001 70.001900 80.699700 -65.338800 8.984550 -0.406207 -0.000000 10.029500 -6.229470 9.874650 16.377300 -0.000001 -0.000001 27.019400 -9.151620 4.592030 6.456720 -0.000001 -0.000000 19.408500 -8.820390 12.880900 12.994200 -0.242716 4.980390 -88.080500 -5.206960 -69.731300 5.348090 -0.000007 -0.000001 -28.363600 -42.504100 -54.755900 24.328600 0.000019 0.000005 13.468800 19.569300 -35.566600 22.291600 -0.000001 0.000005 14.109200 5.259910 1.169530 12.994500 -0.242716 -4.980390 87.552000 11.523200 -77.920600 -5.348130 -0.000001 -0.000004 -58.434300 27.569000 -8.474400 -24.328900 0.000322 -0.000009 1.265600 5.142240 -13.857800 -22.291500 -0.000108 -0.000004 13.616800 5.368380 -1.936460 -2.192480 -6.469440 -0.000000 -164.747000 -16.494200 4.117200 39.081100 -0.000007 -0.000012 -0.361506 0.496988 36.032700 40.985400 -0.000006 -0.000013 -5.140610 2.093170 -73.045000 11.754300 -0.000000 0.000003 -0.000070 -0.000761 -16.606900 -2.192510 6.469440 -0.000001 -177.543000 12.690700 -177.451000 -39.081100 -0.002282 -0.040193 -0.142413 0.214596 34.175800 -40.985400 0.000008 0.000006 9.085600 13.911400 -73.467700 -11.754300 -0.000006 -0.000006 -0.002024 -0.029013 -17.752900
0.000000 0.000000 0.000000 0.000000 0.000000 -0.000000 -6.435390 89.599500 -0.869211 86.372800 -14.272100 13.610200 15.735700 0.000005 -0.000001 70.052300 80.708000 -65.370000 8.984550 -0.406207 -0.000000 10.019500 -6.208630 9.910820 16.377300 -0.000001 -0.000001 26.981700 -9.375860 4.892050 6.456720 -0.000001 -0.000000 19.338800 -9.123090 13.238800 12.994200 -0.242716 4.980390 -88.116800 -5.128970 -69.806300 5.348090 -0.000007 -0.000001 -30.269500 -44.395900 -53.717600 24.328600 0.000019 0.000005 11.312600 20.398800 -29.853100 22.291600 -0.000001 0.000005 13.344400 5.222580 2.146850 12.994500 -0.242716 -4.980390 87.495000 11.523500 -77.647300 -5.348130 -0.000001 -0.000004 -58.140400 26.383100 -7.344860 -24.328900 0.000322 -0.000009 1.242510 5.417280 -12.949000 -22.291500 -0.000108 -0.000004 13.607900 5.364850 -1.827800 -2.192480 -6.469440 -0.000000 -164.696000 -16.734800 4.063910 39.081100 -0.000007 -0.000012 -0.361805 0.498938 35.948500 40.985400 -0.000006 -0.000013 -5.221750 1.946260 -73.051400 11.754300 -0.000000 0.000003 -0.000069 -0.000753 -16.606600 -2.192510 6.469440 -0.000001 -177.396000 12.465500 -177.637000 -39.081100 -0.002282 -0.040193 -0.134616 0.203625 34.108600 -40.985400 0.000008 0.000006 9.153830 14.062200 -73.439800 -11.754300 -0.000006 -0.000006 -0.001993 -0.028627 -17.737200
0.000000 0.000000 0.000000 0.000000 0.000000 -0.000000 -6.471660 89.606900 -0.866864 86.333700 -14.464600 13.376600 15.735700 0.000005 -0.000001 70.171200 80.736700 -65.494900 8.984550 -0.406207 -0.000000 9.974960 -6.155410 9.891550 16.377300 -0.000001 -0.000001 27.014800 -9.566950 5.099030 6.456720 -0.000001 -0.000000 19.278100 -9.394480 13.615500 12.994200 -0.242716 4.980390 -88.110300 -5.133730 -69.759500 5.348090 -0.000007 -0.000001 -34.256200 -46.787700 -54.663900 24.328600 0.000019 0.000005 9.548600 21.476400 -24.676600 22.291600 -0.000001 0.000005 11.904400 5.162680 3.638740 12.994500 -0.242716 -4.980390 87.444300 11.545300 -77.428000 -5.348130 -0.000001 -0.000004 -57.807400 25.479200 -6.100670 -24.328900 0.000322 -0.000009 1.215670 5.486360 -12.524400 -22.291500 -0.000108 -0.000004 13.625200 5.361790 -1.734280 -2.192480 -6.469440 -0.000000 -164.698000 -16.805600 3.907130 39.081100 -0.000007 -0.000012 -0.363063 0.501335 35.912600 40.985400 -0.000006 -0.000013 -5.303180 1.792880 -73.058600 11.754300 -0.000000 0.000003 -0.000068 -0.000736 -16.606000 -2.192510 6.469440 -0.000001 -177.276000 12.374900 -177.841000 -39.081100 -0.002282 -0.040193 -0.135644 0.205497 34.062800 -40.985400 0.000008 0.000006 9.189900 14.126600 -73.417800 -11.754300 -0.000006 -0.000006 -0.002189 -0.031063 -17.836200
0.000000 0.000000 0.000000 0.000000 0.000000 -0.000000 -6.514560 89.614400 -0.875214 86.264600 -14.476300 13.175700 15.735700 0.000005 -0.000001 70.407200 80.775700 -65.722300 8.984550 -0.406207 -0.000000 9.922460 -6.060380 9.897220 16.377300 -0.000001 -0.000001 26.945600 -9.723470 5.209270 6.456720 -0.000001 -0.000000 19.320000 -9.607980 13.728400 12.994200 -0.242716 4.980390 -88.128600 -5.055710 -69.657100 5.348090 -0.000007 -0.000001 -40.664500 -49.640300 -57.515000 24.328600 0.000019 0.000005 8.675090 22.432100 -21.793600 22.291600 -0.000001 0.000005 10.505300 5.075360 5.672920 12.994500 -0.242716 -4.980390 87.403700 11.503900 -77.190600 -5.348130 -0.000001 -0.000004 -57.496200 24.756700 -4.929830 -24.328900 0.000322 -0.000009 1.216040 5.588430 -12.307100 -22.291500 -0.000108 -0.000004 13.565200 5.361490 -1.725010 -2.192480 -6.469440 -0.000000 -164.675000 -16.737700 3.743090 39.081100 -0.000007 -0.000012 -0.368926 0.510020 35.881200 40.985400 -0.000006 -0.000013 -5.355600 1.763640 -73.057900 11.754300 -0.000000 0.000003 -0.000064 -0.000702 -16.604700 -2.192510 6.469440 -0.000001 -177.130000 12.395200 -177.989000 -39.081100 -0.002282 -0.040193 -0.132236 0.201073 33.981200 -40.985400 0.000008 0.000006 9.218160 14.116600 -73.382900 -11.754300 -0.000006 -0.000006 -0.001954 -0.028141 -17.717400
0.000000 0.000000 0.000000 0.000000 0.000000 -0.000000 -6.561330 89.609700 -0.863660 86.211800 -14.241300 13.064600 15.735700 0.000005 -0.000001 70.707800 80.803400 -66.054400 8.984550 -0.406207 -0.000000 9.894500 -5.953360 9.823130 16.377300 -0.000001 -0.000001 27.040500 -9.776810 5.304900 6.456720 -0.000001 -0.000000 19.129800 -9.761840 13.741400 12.994200 -0.242716 4.980390 -88.164200 -4.936290 -69.570700 5.348090 -0.000007 -0.000001 -46.345500 -51.771300 -60.178000 24.328600 0.000019 0.000005 7.772110 20.869800 -20.963000 22.291600 -0.000001 0.000005 9.912340 5.042550 6.400950 12.994500 -0.242716 -4.980390 87.352700 11.500400 -76.943200 -5.348130 -0.000001 -0.000004 -57.261900 24.214600 -3.920830 -24.328900 0.000322 -0.000009 1.174410 5.470480 -12.146400 -22.291500 -0.000108 -0.000004 13.470000 5.361300 -1.719190 -2.192480 -6.469440 -0.000000 -164.693000 -16.552900 3.527590 39.081100 -0.000007 -0.000012 -0.367507 0.506990 35.938400 40.985400 -0.000006 -0.000013 -5.377080 1.777440 -73.051000 11.754300 -0.000000 0.000003 -0.000064 -0.000705 -16.604800 -2.192510 6.469440 -0.000001 -177.080000 12.635000 -178.054000 -39.081100 -0.002282 -0.040193 -0.129023 0.196548 33.948600 -40.985400 0.000008 0.000006 9.256300 14.123800 -73.404600 -11.754300 -0.000006 -0.000006 -0.001982 -0.028492 -17.731700
0.000000 0.000000 0.000000 0.000000 0.000000 -0.000000 -6.631110 89.603200 -0.819318 86.135100 -13.781400 13.159300 15.735700 0.000005 -0.000001 71.293300 80.804800 -66.719000 8.984550 -0.406207 -0.000000 9.939000 -5.775210 9.651380 16.377300 -0.000001 -0.000001 27.115500 -9.795050 5.302490 6.456720 -0.000001 -0.000000 19.043400 -9.805090 13.791100 12.994200 -0.242716 4.980390 -88.184600 -4.836660 -69.398100 5.348090 -0.000007 -0.000001 -48.742800 -52.225600 -61.175900 24.328600 0.000019 0.000005 6.717500 17.385700 -21.513300 22.291600 -0.000001 0.000005 9.989860 5.048140 6.278200 12.994500 -0.242716 -4.980390 87.312300 11.471900 -76.719200 -5.348130 -0.000001 -0.000004 -57.353000 23.674600 -2.921450 -24.328900 0.000322 -0.000009 1.174680 5.531830 -12.018700 -22.291500 -0.000108 -0.000004 13.389200 5.361110 -1.713610 -2.192480 -6.469440 -0.000000 -164.624000 -16.196900 3.512440 39.081100 -0.000007 -0.000012 -0.368347 0.507406 35.978200 40.985400 -0.000006 -0.000013 -5.375550 1.939740 -73.045500 11.754300 -0.000000 0.000003 -0.000064 -0.000699 -16.604600 -2.192510 6.469440 -0.000001 -177.132000 13.144800 -177.830000 -39.081100 -0.002282 -0.040193 -0.131272 0.200490 33.868900 -40.985400 0.000008 0.000006 9.294880 14.142200 -73.462600 -11.754300 -0.000006 -0.000006 -0.002038 -0.029196 -17.760300
0.000000 0.000000 0.000000 0.000000 0.000000 -0.000000 -6.714830 89.579100 -0.747033 86.054900 -12.996400 13.374900 15.735700 0.000005 -0.000001 71.929900 80.795500 -67.471900 8.984550 -0.406207 -0.000000 10.004700 -5.587430 9.405290 16.377300 -0.000001 -0.000001 27.164200 -9.768280 5.281610 6.456720 -0.000001 -0.000000 18.970300 -9.833930 13.638000 12.994200 -0.242716 4.980390 -88.213400 -4.733420 -69.293200 5.348090 -0.000007 -0.000001 -48.147700 -51.386400 -60.959900 24.328600 0.000019 0.000005 6.232160 14.913800 -22.991900 22.291600 -0.000001 0.000005 10.334000 5.066540 5.870300 12.994500 -0.242716 -4.980390 87.321100 11.332300 -76.606300 -5.348130 -0.000001 -0.000004 -57.826600 23.230300 -2.058370 -24.328900 0.000322 -0.000009 1.150280 5.537300 -11.765000 -22.291500 -0.000108 -0.000004 13.220900 5.358320 -1.628610 -2.192480 -6.469440 -0.000000 -164.558000 -15.679500 3.503350 39.081100 -0.000007 -0.000012 -0.366122 0.501963 36.107100 40.985400 -0.000006 -0.000013 -5.315520 2.259000 -73.068100 11.754300 -0.000000 0.000003 -0.000059 -0.000656 -16.603000 -2.192510 6.469440 -0.000001 -177.237000 13.840200 -177.477000 -39.081100 -0.002282 -0.040193 -0.132369 0.202404 33.832400 -40.985400 0.000008 0.000006 9.316780 14.052700 -73.577500 -11.754300 -0.000006 -0.000006 -0.002029 -0.029073 -17.755300
0.000000 0.000000 0.000000 0.000000 0.000000 -0.000000 -6.807630 89.558100 -0.681621 86.002400 -11.929500 13.711900 15.735700 0.000005 -0.000001 72.535100 80.802300 -68.242200 8.984550 -0.406207 -0.000000 10.032700 -5.401390 9.059780 16.377300 -0.000001 -0.000001 27.225300 -9.641480 5.074460 6.456720 -0.000001 -0.000000 19.022300 -9.781520 13.475700 12.994200 -0.242716 4.980390 -88.185200 -4.776880 -69.168800 5.348090 -0.000007 -0.000001 -47.710900 -49.877500 -62.016700 24.328600 0.000019 0.000005 6.537340 14.316400 -24.864300 22.291600 -0.000001 0.000005 10.633600 5.083480 5.489690 12.994500 -0.242716 -4.980390 87.350600 11.225400 -76.628500 -5.348130 -0.000001 -0.000004 -58.528800 22.999100 -1.229560 -24.328900 0.000322 -0.000009 1.099680 5.441860 -11.453000 -22.291500 -0.000108 -0.000004 13.248100 5.357530 -1.604660 -2.192480 -6.469440 -0.000000 -164.566000 -14.838800 3.523020 39.081100 -0.000007 -0.000012 -0.372306 0.508642 36.203500 40.985400 -0.000006 -0.000013 -5.280270 2.556920 -73.050900 11.754300 -0.000000 0.000003 -0.000060 -0.000667 -16.603400 -2.192510 6.469440 -0.000001 -177.404000 14.698700 -176.987000 -39.081100 -0.002282 -0.040193 -0.129667 0.198897 33.762500 -40.985400 0.000008 0.000006 9.295340 13.788800 -73.678700 -11.754300 -0.000006 -0.000006 -0.001872 -0.027105 -17.675300
0.000000 0.000000 0.000000 0.000000 0.000000 -0.000000 -6.905210 89.526400 -0.631292 85.965300 -10.609000 14.016300 15.735700 0.000005 -0.000001 73.037000 80.860200 -68.895700 8.984550 -0.406207 -0.000000 9.952400 -5.221170 8.736690 16.377300 -0.000001 -0.000001 27.307100 -9.521110 4.695510 6.456720 -0.000001 -0.000000 19.068200 -9.598900 13.077200 12.994200 -0.242716 4.980390 -88.149700 -4.851180 -69.093300 5.348090 -0.000007 -0.000001 -46.826200 -47.801600 -63.598800 24.328600 0.000019 0.000005 6.753520 13.478300 -26.933800 22.291600 -0.000001 0.000005 10.723700 5.096980 5.182610 12.994500 -0.242716 -4.980390 87.408700 11.091200 -76.761500 -5.348130 -0.000001 -0.000004 -59.257200 22.981300 -0.640948 -24.328900 0.000322 -0.000009 1.089970 5.571550 -11.097700 -22.291500 -0.000108 -0.000004 13.291000 5.354750 -1.520350 -2.192480 -6.469440 -0.000000 -164.646000 -13.914700 3.374690 39.081100 -0.000007 -0.000012 -0.373497 0.507059 36.376000 40.985400 -0.000006 -0.000013 -5.186110 2.987540 -73.024200 11.754300 -0.000000 0.000003 -0.000065 -0.000713 -16.605100 -2.192510 6.469440 -0.000001 -177.608000 15.650500 -176.573000 -39.081100 -0.002282 -0.040193 -0.132146 0.202702 33.749900 -40.985400 0.000008 0.000006 9.236590 13.418900 -73.799500 -11.754300 -0.000006 -0.000006 -0.001926 -0.027783 -17.702900
